<?xml version="1.0" encoding="UTF-8"?>
 <svg width="72px" height="72px" viewBox="0 0 72 72" version="1.1" xmlns="http://www.w3.org/2000/svg" xmlns:xlink="http://www.w3.org/1999/xlink">
     <!-- Generator: Sketch 58 (84663) - https://sketch.com -->
     <title>lv1: ic / cross</title>
     <desc>Created with Sketch.</desc>
     <defs>
         <path d="M0.574623216,37.7013803 C-0.188063464,38.464067 -0.189872693,39.7032622 0.570088668,40.4632236 L1.53677643,41.4299113 C2.29894979,42.1920847 3.53451893,42.1894776 4.29861972,41.4253768 L21,24.7239965 L37.7013803,41.4253768 C38.464067,42.1880635 39.7032622,42.1898727 40.4632236,41.4299113 L41.4299113,40.4632236 C42.1920847,39.7010502 42.1894776,38.4654811 41.4253768,37.7013803 L24.7239965,21 L41.4253768,4.29861972 C42.1880635,3.53593304 42.1898727,2.29673779 41.4299113,1.53677643 L40.4632236,0.570088668 C39.7010502,-0.192084697 38.4654811,-0.189477576 37.7013803,0.574623216 L21,17.2760035 L4.29861972,0.574623216 C3.53593304,-0.188063464 2.29673779,-0.189872693 1.53677643,0.570088668 L0.570088668,1.53677643 C-0.192084697,2.29894979 -0.189477576,3.53451893 0.574623216,4.29861972 L17.2760035,21 L0.574623216,37.7013803 Z" id="path-1"></path>
     </defs>
     <g id="lv1:-ic-/-cross" stroke="none" stroke-width="1" fill="none" fill-rule="evenodd">
         <g id="Group" transform="translate(15.000000, 15.000000)">
             <mask id="mask-2" fill="white">
                 <use xlink:href="#path-1"></use>
             </mask>
             <use id="Mask" fill="#FEFEFE" fill-rule="nonzero" opacity="0" xlink:href="#path-1"></use>
             <g id="lv1:-color-/-dark---87" mask="url(#mask-2)" fill="#212121">
                 <g transform="translate(-15.000000, -15.000000)" id="Rectangle">
                     <rect x="0" y="0" width="72" height="72"></rect>
                 </g>
             </g>
         </g>
     </g>
 </svg>